<svg width="17" height="16" viewBox="0 0 17 16" fill="none" xmlns="http://www.w3.org/2000/svg">
<path d="M9.90625 13.625H4.125V2.375H9.4375C10.0639 2.37504 10.6771 2.55435 11.2048 2.89174C11.7325 3.22914 12.1526 3.71052 12.4155 4.27903C12.6784 4.84754 12.7731 5.47942 12.6884 6.10001C12.6037 6.72061 12.3431 7.30399 11.9375 7.78125C12.4673 8.20497 12.8528 8.78251 13.0408 9.43435C13.2289 10.0862 13.2102 10.7803 12.9875 11.4211C12.7647 12.0619 12.3488 12.6179 11.797 13.0126C11.2452 13.4073 10.5847 13.6213 9.90625 13.625ZM6 11.75H9.89375C10.0784 11.75 10.2613 11.7136 10.4319 11.643C10.6025 11.5723 10.7575 11.4687 10.8881 11.3381C11.0187 11.2075 11.1223 11.0525 11.193 10.8819C11.2636 10.7113 11.3 10.5284 11.3 10.3438C11.3 10.1591 11.2636 9.97622 11.193 9.8056C11.1223 9.63499 11.0187 9.47996 10.8881 9.34938C10.7575 9.2188 10.6025 9.11521 10.4319 9.04454C10.2613 8.97387 10.0784 8.9375 9.89375 8.9375H6V11.75ZM6 7.0625H9.4375C9.62217 7.0625 9.80503 7.02613 9.97565 6.95546C10.1463 6.88478 10.3013 6.7812 10.4319 6.65062C10.5625 6.52004 10.666 6.36501 10.7367 6.1944C10.8074 6.02378 10.8438 5.84092 10.8438 5.65625C10.8438 5.47158 10.8074 5.28872 10.7367 5.1181C10.666 4.94749 10.5625 4.79246 10.4319 4.66188C10.3013 4.5313 10.1463 4.42772 9.97565 4.35704C9.80503 4.28637 9.62217 4.25 9.4375 4.25H6V7.0625Z" fill="#212529"/>
</svg>
