<svg width="16" height="16" viewBox="0 0 16 16" fill="none" xmlns="http://www.w3.org/2000/svg">
<path fill-rule="evenodd" clip-rule="evenodd" d="M0.666667 8C0.666667 3.94991 3.94991 0.666667 8 0.666667C12.0501 0.666667 15.3333 3.94991 15.3333 8C15.3333 9.47276 14.1394 10.6667 12.6667 10.6667H12.3333C12.0025 10.6667 11.9017 10.6681 11.826 10.6781C11.2277 10.7568 10.7568 11.2277 10.6781 11.826C10.6681 11.9017 10.6667 12.0025 10.6667 12.3333V12.6667C10.6667 14.1394 9.47276 15.3333 8 15.3333C3.94991 15.3333 0.666667 12.0501 0.666667 8ZM6.66667 3.33333C5.93029 3.33333 5.33333 3.93029 5.33333 4.66667C5.33333 5.40305 5.93029 6 6.66667 6C7.40305 6 8 5.40305 8 4.66667C8 3.93029 7.40305 3.33333 6.66667 3.33333ZM9.33333 5.33333C9.33333 4.59695 9.93029 4 10.6667 4C11.403 4 12 4.59695 12 5.33333C12 6.06971 11.403 6.66667 10.6667 6.66667C9.93029 6.66667 9.33333 6.06971 9.33333 5.33333ZM3.33333 8C3.33333 7.26362 3.93029 6.66667 4.66667 6.66667C5.40305 6.66667 6 7.26362 6 8C6 8.73638 5.40305 9.33333 4.66667 9.33333C3.93029 9.33333 3.33333 8.73638 3.33333 8Z" fill="currentColor"/>
</svg>
